<?xml version="1.0" standalone="no"?>
<!-- Generator: Adobe Fireworks 10, Export SVG Extension by Aaron Beall (http://fireworks.abeall.com) . Version: 0.6.1  -->
<!DOCTYPE svg PUBLIC "-//W3C//DTD SVG 1.1//EN" "http://www.w3.org/Graphics/SVG/1.1/DTD/svg11.dtd">
<svg id="icon-note.fw-%u30DA%u30FC%u30B8%201" viewBox="0 0 248 217" style="background-color:#ffffff00" version="1.1"
	xmlns="http://www.w3.org/2000/svg" xmlns:xlink="http://www.w3.org/1999/xlink" xml:space="preserve"
	x="0px" y="0px" width="248px" height="217px"
>
	<g id="%u30EC%u30A4%u30E4%u30FC%201">
		<path d="M 66 2 L 2 109 L 60 215 L 184 215 L 246 109 L 187 2 L 66 2 Z" stroke="#ffffff" stroke-width="3" fill="none"/>
		<path id="%u6955%u5186%u5F62" d="M 143 83.5 C 143 77.701 147.7009 73 153.5 73 C 159.2991 73 164 77.701 164 83.5 C 164 89.299 159.2991 94 153.5 94 C 147.7009 94 143 89.299 143 83.5 Z" stroke="#ffffff" stroke-width="3" fill="none"/>
		<path id="%u6955%u5186%u5F622" d="M 122 123 C 122 117.4771 126.4771 113 132 113 C 137.5229 113 142 117.4771 142 123 C 142 128.5229 137.5229 133 132 133 C 126.4771 133 122 128.5229 122 123 Z" stroke="#ffffff" stroke-width="3" fill="none"/>
		<path id="%u6955%u5186%u5F623" d="M 101 98 C 101 92.4771 105.4771 88 111 88 C 116.5229 88 121 92.4771 121 98 C 121 103.5229 116.5229 108 111 108 C 105.4771 108 101 103.5229 101 98 Z" stroke="#ffffff" stroke-width="3" fill="none"/>
		<path id="%u6955%u5186%u5F624" d="M 83 132.5 C 83 126.701 87.701 122 93.5 122 C 99.2991 122 104 126.701 104 132.5 C 104 138.299 99.2991 143 93.5 143 C 87.701 143 83 138.299 83 132.5 Z" stroke="#ffffff" stroke-width="3" fill="none"/>
		<path id="%u30E9%u30A4%u30F3%u30C4%u30FC%u30EB" d="M 148 91.6667 L 136.5 114.5 " stroke="#ffffff" stroke-width="3" fill="none"/>
		<path id="%u30E9%u30A4%u30F3%u30C4%u30FC%u30EB2" d="M 117.5 105.5 L 126.25 115.375 " stroke="#ffffff" stroke-width="3" fill="none"/>
		<path id="%u30E9%u30A4%u30F3%u30C4%u30FC%u30EB3" d="M 106.1667 105.6667 L 96.5 123.5 " stroke="#ffffff" stroke-width="3" fill="none"/>
	</g>
</svg>